#N canvas 0 49 1438 628 10;
#X obj 183 84 comport;
#X obj 183 106 t a a;
#X obj 183 128 sgDeviceC;
#X obj 276 111 print in;
#X obj 287 180 print midi;
#X obj 62 164 print controls;
#X obj 214 45 bng 15 250 50 0 empty empty empty 17 7 0 10 -262144 -1
-1;
#X msg 248 46 close \, open 0;
#X obj 147 401 sgPrepend set;
#X obj 400 166 sgInputToFEdit;
#X obj 400 144 sgPackFromHuman;
#X msg 44 288 list sgDevice.meta 3 index 1 1;
#X obj 148 349 sgInputToFunctionC;
#X obj 400 74 loadbang;
#X msg 147 423 trigger 0;
#X msg 37 257 list sgDevice.trigger 3 index 1 1;
#X msg 400 96 triggers ( input ( sgDevice.trigger ( ) ) trigger ( [
index ] ) ) analog ( input ( sgDevice.analog ( ) ) analog ( index [
index ] value [ value -10 10 0 1 ] ) );
#X obj 273 394 sgPackFType trigger;
#X obj 102 373 print blubb;
#X obj 273 416 sgMessageFromPack;
#X obj 498 416 route trigger analog;
#X connect 0 0 1 0;
#X connect 1 0 2 0;
#X connect 2 0 5 0;
#X connect 2 0 12 0;
#X connect 2 1 5 0;
#X connect 2 1 12 0;
#X connect 2 2 5 0;
#X connect 2 2 12 0;
#X connect 2 3 5 0;
#X connect 2 3 12 0;
#X connect 2 4 4 0;
#X connect 6 0 0 0;
#X connect 7 0 0 0;
#X connect 8 0 14 0;
#X connect 9 0 12 1;
#X connect 10 0 9 0;
#X connect 11 0 12 0;
#X connect 12 0 17 0;
#X connect 12 0 18 0;
#X connect 13 0 16 0;
#X connect 15 0 12 0;
#X connect 16 0 10 0;
#X connect 17 0 19 0;
#X connect 19 0 8 0;
